<svg width="278" height="70" viewBox="0 0 278 70" fill="none" xmlns="http://www.w3.org/2000/svg">
<path d="M101.991 33.7796C100.247 33.7796 98.756 33.1621 97.5205 31.924C96.2835 30.6875 95.6665 29.1956 95.6665 27.4499V13.3313C95.6665 11.6073 96.2835 10.1278 97.5205 8.88973C98.756 7.62999 100.247 7.00012 101.991 7.00012C103.713 7.00012 105.192 7.62999 106.429 8.88973C107.666 10.1278 108.283 11.6073 108.283 13.3313C108.283 13.5294 108.21 13.6903 108.068 13.8111C107.924 13.9333 107.776 13.9937 107.621 13.9937H104.807C104.609 13.9937 104.448 13.9225 104.327 13.7786C104.205 13.6346 104.145 13.4861 104.145 13.3313C104.145 12.7339 103.935 12.2263 103.516 11.8069C103.073 11.3659 102.566 11.1446 101.992 11.1446C101.397 11.1446 100.878 11.3659 100.435 11.8069C100.016 12.2263 99.806 12.7355 99.806 13.3313V27.4499C99.806 28.069 100.016 28.5874 100.435 29.0084C100.854 29.4278 101.374 29.6382 101.992 29.6382C102.566 29.6382 103.073 29.4278 103.516 29.0084C103.935 28.589 104.145 28.069 104.145 27.4499C104.145 27.2503 104.216 27.0909 104.36 26.9702C104.504 26.8495 104.652 26.7876 104.807 26.7876H107.621C107.82 26.7876 107.98 26.8588 108.1 27.0027C108.221 27.1466 108.283 27.2952 108.283 27.4499C108.283 29.1956 107.664 30.6875 106.429 31.924C105.833 32.543 105.159 33.0073 104.409 33.3168C103.658 33.6248 102.852 33.7796 101.991 33.7796Z" fill="url(#paint0_linear_57_5352)"/>
<path d="M117.092 33.7797C115.348 33.7797 113.857 33.1622 112.622 31.9241C111.385 30.6876 110.768 29.1957 110.768 27.4501V13.3314C110.768 11.6074 111.385 10.1279 112.622 8.88985C113.857 7.63012 115.348 7.00024 117.092 7.00024C118.815 7.00024 120.293 7.63012 121.53 8.88985C122.767 10.1279 123.384 11.6074 123.384 13.3314V27.4501C123.384 29.1957 122.765 30.6876 121.53 31.9241C120.935 32.5432 120.26 33.0074 119.51 33.317C118.759 33.6249 117.953 33.7797 117.092 33.7797ZM117.092 29.6368C117.666 29.6368 118.173 29.4263 118.615 29.0069C119.034 28.5875 119.244 28.0676 119.244 27.4485V13.3299C119.244 12.7325 119.034 12.2249 118.615 11.8055C118.173 11.3644 117.666 11.1431 117.092 11.1431C116.497 11.1431 115.977 11.3644 115.535 11.8055C115.116 12.2249 114.905 12.7341 114.905 13.3299V27.4485C114.905 28.0676 115.116 28.586 115.535 29.0069C115.954 29.4279 116.473 29.6368 117.092 29.6368Z" fill="url(#paint1_linear_57_5352)"/>
<path d="M125.868 33.1173V7.66416C125.868 7.46453 125.939 7.30512 126.083 7.18286C126.226 7.06215 126.375 7.00024 126.529 7.00024H132.888C134.61 7.00024 136.089 7.63011 137.326 8.88985C138.561 10.1279 139.18 11.6074 139.18 13.3314V27.45C139.18 29.1957 138.561 30.6876 137.326 31.9241C136.729 32.5431 136.056 33.0074 135.306 33.3169C134.555 33.6264 133.749 33.7812 132.889 33.7812H126.531C126.332 33.7812 126.172 33.71 126.052 33.5661C125.928 33.4206 125.868 33.272 125.868 33.1173ZM132.888 29.6367C133.462 29.6367 133.969 29.4263 134.411 29.0069C134.83 28.5875 135.04 28.0675 135.04 27.4485V13.3299C135.04 12.7325 134.83 12.2249 134.411 11.8055C133.969 11.3644 133.462 11.1431 132.888 11.1431H130.007V29.6367H132.888Z" fill="url(#paint2_linear_57_5352)"/>
<path d="M141.663 33.1173V7.66416C141.663 7.46453 141.734 7.30512 141.878 7.18286C142.022 7.06215 142.17 7.00024 142.325 7.00024H153.618C153.817 7.00024 153.976 7.07144 154.097 7.21536C154.218 7.35929 154.279 7.50786 154.279 7.66261V10.4792C154.279 10.6789 154.207 10.8383 154.064 10.9605C153.921 11.0828 153.772 11.1431 153.618 11.1431H145.803V18.3022H151.498C151.696 18.3022 151.856 18.3734 151.977 18.5174C152.098 18.6613 152.159 18.8099 152.159 18.9646V21.8153C152.159 22.0149 152.087 22.1743 151.944 22.295C151.801 22.4173 151.652 22.4776 151.498 22.4776H145.803V29.6367H153.618C153.817 29.6367 153.976 29.7095 154.097 29.8519C154.218 29.9958 154.279 30.1444 154.279 30.2991V33.1157C154.279 33.3154 154.207 33.4748 154.064 33.5955C153.921 33.7177 153.772 33.7781 153.618 33.7781H142.325C142.125 33.7781 141.966 33.7069 141.846 33.563C141.723 33.4206 141.663 33.272 141.663 33.1173Z" fill="url(#paint3_linear_57_5352)"/>
<path d="M169.05 33.1173V7.66416C169.05 7.46453 169.121 7.30512 169.265 7.18286C169.409 7.06215 169.557 7.00024 169.712 7.00024H175.374C177.097 7.00024 178.575 7.63012 179.812 8.88985C181.049 10.1279 181.666 11.6074 181.666 13.3314V18.9662C181.666 20.7119 181.048 22.2037 179.812 23.4403C178.575 24.6783 177.097 25.2958 175.374 25.2958H173.189V33.1173C173.189 33.317 173.117 33.4764 172.974 33.5971C172.831 33.7193 172.682 33.7797 172.527 33.7797H169.713C169.514 33.7797 169.354 33.7085 169.234 33.5646C169.11 33.4206 169.05 33.2721 169.05 33.1173ZM175.374 21.1189C175.948 21.1189 176.455 20.9208 176.897 20.5231C177.316 20.082 177.527 19.562 177.527 18.9646V13.3299C177.527 12.7325 177.316 12.2249 176.897 11.8055C176.455 11.3644 175.948 11.1431 175.374 11.1431H173.189V21.1189H175.374Z" fill="url(#paint4_linear_57_5352)"/>
<path d="M184.216 32.9514L190.574 7.49824C190.641 7.16706 190.85 7.00146 191.204 7.00146H194.018C194.371 7.00146 194.581 7.16706 194.647 7.49824L201.006 32.9514C201.028 33.0628 201.038 33.1619 201.038 33.2501C201.038 33.6045 200.817 33.7809 200.377 33.7809H197.562C197.21 33.7809 196.999 33.6153 196.933 33.2841L195.608 28.1136H189.614L188.289 33.2841C188.223 33.6153 188.012 33.7809 187.66 33.7809H184.845C184.757 33.7809 184.669 33.7762 184.581 33.7639C184.493 33.753 184.392 33.6803 184.283 33.5487C184.216 33.4605 184.184 33.3491 184.184 33.2176C184.184 33.1278 184.194 33.0396 184.216 32.9514ZM194.581 23.9692L192.628 16.0487L190.641 23.9692H194.581Z" fill="url(#paint5_linear_57_5352)"/>
<path d="M213.821 23.8705L216.073 32.9517C216.094 33.0631 216.105 33.1622 216.105 33.2504C216.105 33.6048 215.884 33.7812 215.443 33.7812H212.629C212.276 33.7812 212.066 33.6156 212 33.2844L210.013 25.2973H207.628V33.1188C207.628 33.3184 207.555 33.4779 207.413 33.5986C207.269 33.7208 207.121 33.7812 206.966 33.7812H204.152C203.953 33.7812 203.793 33.71 203.673 33.5661C203.551 33.4221 203.49 33.2736 203.49 33.1188V7.66416C203.49 7.46453 203.561 7.30512 203.705 7.18286C203.849 7.06215 203.997 7.00024 204.152 7.00024H209.815C211.537 7.00024 213.015 7.63011 214.253 8.88985C215.49 10.1279 216.107 11.6074 216.107 13.3314V18.9662C216.107 20.7118 215.488 22.2037 214.253 23.4402C214.118 23.5718 213.974 23.7157 213.821 23.8705ZM209.813 21.1189C210.387 21.1189 210.894 20.9208 211.336 20.523C211.755 20.082 211.966 19.562 211.966 18.9646V13.3299C211.966 12.7325 211.755 12.2249 211.336 11.8055C210.894 11.3644 210.387 11.1431 209.813 11.1431H207.628V21.1189H209.813Z" fill="url(#paint6_linear_57_5352)"/>
<path d="M222.828 33.1173V11.1431H219.252C219.052 11.1431 218.893 11.0719 218.772 10.928C218.65 10.7841 218.59 10.6355 218.59 10.4808V7.66416C218.59 7.46453 218.661 7.30512 218.805 7.18286C218.949 7.06215 219.097 7.00024 219.252 7.00024H230.544C230.744 7.00024 230.903 7.07144 231.024 7.21536C231.144 7.35929 231.206 7.50786 231.206 7.66262V10.4792C231.206 10.6789 231.133 10.8383 230.991 10.9605C230.847 11.0828 230.699 11.1431 230.544 11.1431H226.968V33.1173C226.968 33.317 226.897 33.4764 226.753 33.5971C226.609 33.7193 226.461 33.7797 226.306 33.7797H223.492C223.292 33.7797 223.133 33.7085 223.011 33.5646C222.889 33.4206 222.828 33.2721 222.828 33.1173Z" fill="url(#paint7_linear_57_5352)"/>
<path d="M237.797 7.43203L242.864 20.9873V7.66416C242.864 7.46453 242.935 7.30512 243.079 7.18286C243.223 7.06215 243.371 7.00024 243.526 7.00024H246.34C246.538 7.00024 246.699 7.07144 246.819 7.21536C246.94 7.35929 247.002 7.50786 247.002 7.66261V33.1157C247.002 33.3154 246.929 33.4748 246.787 33.5955C246.643 33.7177 246.495 33.7781 246.34 33.7781H243.526C243.217 33.7781 243.006 33.6342 242.896 33.3479L237.831 19.7926V33.1157C237.831 33.3154 237.758 33.4748 237.616 33.5955C237.472 33.7177 237.324 33.7781 237.169 33.7781H234.355C234.155 33.7781 233.996 33.7069 233.875 33.563C233.753 33.4191 233.693 33.2705 233.693 33.1157V7.66416C233.693 7.46453 233.764 7.30512 233.908 7.18286C234.052 7.06215 234.2 7.00024 234.355 7.00024H237.169C237.475 7.00024 237.685 7.14418 237.797 7.43203Z" fill="url(#paint8_linear_57_5352)"/>
<path d="M249.485 33.1173V7.66416C249.485 7.46453 249.556 7.30512 249.7 7.18286C249.844 7.06215 249.993 7.00024 250.147 7.00024H261.44C261.639 7.00024 261.799 7.07144 261.919 7.21536C262.04 7.35929 262.102 7.50786 262.102 7.66261V10.4792C262.102 10.6789 262.029 10.8383 261.887 10.9605C261.743 11.0828 261.594 11.1431 261.44 11.1431H253.625V18.3022H259.32C259.518 18.3022 259.679 18.3734 259.799 18.5174C259.92 18.6613 259.982 18.8099 259.982 18.9646V21.8153C259.982 22.0149 259.909 22.1743 259.767 22.295C259.623 22.4173 259.474 22.4776 259.32 22.4776H253.625V29.6367H261.44C261.639 29.6367 261.799 29.7095 261.919 29.8519C262.04 29.9958 262.102 30.1444 262.102 30.2991V33.1157C262.102 33.3154 262.029 33.4748 261.887 33.5955C261.743 33.7177 261.594 33.7781 261.44 33.7781H250.147C249.948 33.7781 249.788 33.7069 249.668 33.563C249.546 33.4206 249.485 33.272 249.485 33.1173Z" fill="url(#paint9_linear_57_5352)"/>
<path d="M274.917 23.8705L277.169 32.9517C277.19 33.0631 277.201 33.1622 277.201 33.2504C277.201 33.6048 276.98 33.7812 276.539 33.7812H273.725C273.373 33.7812 273.162 33.6156 273.096 33.2844L271.109 25.2973H268.724V33.1188C268.724 33.3184 268.652 33.4779 268.509 33.5986C268.366 33.7208 268.217 33.7812 268.063 33.7812H265.248C265.049 33.7812 264.889 33.71 264.769 33.5661C264.647 33.4221 264.586 33.2736 264.586 33.1188V7.66416C264.586 7.46453 264.658 7.30512 264.801 7.18286C264.945 7.06215 265.094 7.00024 265.248 7.00024H270.911C272.633 7.00024 274.112 7.63011 275.349 8.88985C276.586 10.1279 277.203 11.6074 277.203 13.3314V18.9662C277.203 20.7118 276.584 22.2037 275.349 23.4402C275.216 23.5718 275.072 23.7157 274.917 23.8705ZM270.911 21.1189C271.484 21.1189 271.992 20.9208 272.434 20.523C272.853 20.082 273.063 19.562 273.063 18.9646V13.3299C273.063 12.7325 272.853 12.2249 272.434 11.8055C271.992 11.3644 271.484 11.1431 270.911 11.1431H268.726V21.1189H270.911Z" fill="url(#paint10_linear_57_5352)"/>
<path d="M69.4955 29.4277H64.9256H60.0219C60.0219 29.4277 65.3993 30.6024 65.4306 35.5915C65.1143 52.1325 51.5745 65.4934 34.9697 65.4934C23.8698 65.4934 14.1399 59.5223 8.81498 50.6213C8.27874 49.7268 7.78624 48.8023 7.34375 47.849H34.7509C35.7547 51.841 39.3734 54.8072 43.6696 54.8072C48.7458 54.8072 52.872 50.6738 52.872 45.5972C52.872 40.5168 48.7445 36.3872 43.6696 36.3872C39.3734 36.3872 35.7547 39.3496 34.7509 43.3454H1.00757C1.38131 44.8904 1.86631 46.3953 2.44131 47.8503C2.81505 48.7961 3.2313 49.7218 3.68129 50.6225C9.42498 62.1032 21.2936 69.9996 34.9697 69.9996C54.2507 69.9996 69.9393 54.2993 69.9393 35.001C69.9393 33.1045 69.7868 31.2392 69.4955 29.4277ZM43.6708 40.8908C46.2646 40.8908 48.372 43.0013 48.372 45.5972C48.372 48.1893 46.2633 50.3035 43.6708 50.3035C41.0809 50.3035 38.9721 48.1893 38.9721 45.5972C38.9721 43.0001 41.0809 40.8908 43.6708 40.8908Z" fill="url(#paint11_linear_57_5352)"/>
<path d="M69.4955 29.428H64.9256H60.0219C60.0219 29.428 65.3993 30.6027 65.4306 35.5918C65.1143 52.1328 51.5745 65.4937 34.9697 65.4937C23.8698 65.4937 14.1399 59.5226 8.81498 50.6215C8.27874 49.7271 7.78624 48.8026 7.34375 47.8493H34.7509C35.7547 51.8413 39.3734 54.8075 43.6696 54.8075C48.7458 54.8075 52.872 50.6741 52.872 45.5974C52.872 40.517 48.7445 36.3874 43.6696 36.3874C39.3734 36.3874 35.7547 39.3498 34.7509 43.3456H1.00757C1.38131 44.8906 1.86631 46.3956 2.44131 47.8505C2.81505 48.7963 3.2313 49.722 3.68129 50.6228C9.42498 62.1034 21.2936 69.9999 34.9697 69.9999C54.2507 69.9999 69.9393 54.2995 69.9393 35.0013C69.9393 33.1047 69.7868 31.2395 69.4955 29.428ZM43.6708 40.8911C46.2646 40.8911 48.372 43.0016 48.372 45.5974C48.372 48.1896 46.2633 50.3038 43.6708 50.3038C41.0809 50.3038 38.9721 48.1896 38.9721 45.5974C38.9721 43.0003 41.0809 40.8911 43.6708 40.8911Z" fill="url(#paint12_linear_57_5352)"/>
<path d="M9.91739 40.5719C9.91739 40.5719 4.5387 39.3972 4.5087 34.4068C4.8262 17.8671 18.3685 4.50618 34.9696 4.50618C46.0695 4.50618 55.8019 10.4773 61.1243 19.3783C61.6606 20.2728 62.1531 21.1973 62.5956 22.1506H35.1909C34.1871 18.1586 30.5647 15.1924 26.2685 15.1924C21.1923 15.1924 17.0661 19.3258 17.0661 24.4024C17.0661 29.4828 21.1935 33.6124 26.2685 33.6124C30.5647 33.6124 34.1871 30.65 35.1909 26.6543H68.9317C68.558 25.1092 68.073 23.6055 67.498 22.1493C67.1243 21.2036 66.708 20.2778 66.258 19.3771C60.5143 7.89645 48.6457 0 34.9696 0C15.6886 0 0 15.7003 0 34.9986C0 36.8939 0.152497 38.7579 0.443744 40.5706H5.01369H9.91739V40.5719ZM26.2685 29.1088C23.6747 29.1088 21.566 26.9983 21.566 24.4024C21.566 21.8066 23.6747 19.6973 26.2685 19.6973C28.8584 19.6973 30.9709 21.8078 30.9709 24.4024C30.9709 26.9983 28.8584 29.1088 26.2685 29.1088Z" fill="url(#paint13_linear_57_5352)"/>
<path d="M96.8772 46.6102H99.0816C100.714 46.6102 101.905 46.82 102.654 47.2397C103.701 47.8373 104.225 48.791 104.225 50.1007C104.198 50.711 104.014 51.2896 103.674 51.8364C103.334 52.3831 102.783 52.7837 102.021 53.038C102.701 53.1779 103.259 53.4449 103.694 53.8391C104.144 54.2206 104.443 54.6084 104.593 55.0026C104.742 55.3968 104.817 55.8672 104.817 56.414C104.817 56.9608 104.674 57.5139 104.388 58.0734C104.116 58.6329 103.715 59.0589 103.184 59.3513C102.409 59.7582 101.306 59.9617 99.8776 59.9617H96.918C96.5642 59.9617 96.3193 59.9045 96.1832 59.79C96.0607 59.6629 95.9995 59.4276 95.9995 59.0843V47.4495C95.9995 47.1189 96.0539 46.8963 96.1628 46.7819C96.2853 46.6675 96.5234 46.6102 96.8772 46.6102ZM99.0612 47.5639H97.0201V59.0271H100.204C102.599 59.0271 103.797 58.1179 103.797 56.2996C103.797 55.5493 103.463 54.9008 102.796 54.3541C102.143 53.7946 101.218 53.5148 100.02 53.5148H98.6529C98.5033 53.5148 98.3944 53.5148 98.3264 53.5148C98.2583 53.5021 98.1767 53.464 98.0814 53.4004C97.9998 53.3241 97.959 53.2033 97.959 53.038C97.959 52.86 98.027 52.7455 98.1631 52.6947C98.3128 52.6438 98.5169 52.6184 98.7754 52.6184H100.061C101.191 52.6184 101.994 52.3577 102.47 51.8364C102.96 51.315 103.205 50.7301 103.205 50.0816C103.205 49.4077 102.973 48.8482 102.511 48.4031C101.953 47.8437 100.803 47.5639 99.0612 47.5639Z" fill="black"/>
<path d="M107.977 46.038H108.14C108.399 46.038 108.528 46.1588 108.528 46.4004V57.0244C108.528 58.3849 109.147 59.0652 110.385 59.0652H110.712C110.821 59.0652 110.909 59.1034 110.977 59.1797C111.059 59.256 111.1 59.3386 111.1 59.4276V59.5802C111.1 59.8345 110.855 59.9617 110.365 59.9617C109.44 59.9617 108.739 59.7137 108.263 59.2178C107.786 58.7219 107.555 57.9971 107.569 57.0434V46.4004C107.569 46.1588 107.705 46.038 107.977 46.038Z" fill="black"/>
<path d="M114.385 53.5339C114.385 52.5294 114.711 51.7537 115.365 51.2069C116.018 50.6602 116.868 50.3868 117.916 50.3868C118.964 50.3868 119.807 50.6665 120.447 51.226C121.087 51.7728 121.406 52.5421 121.406 53.5339V56.8527C121.406 57.8445 121.087 58.6202 120.447 59.1797C119.807 59.7264 118.964 59.9998 117.916 59.9998C116.882 59.9998 116.031 59.7264 115.365 59.1797C114.711 58.6202 114.385 57.8445 114.385 56.8527V53.5339ZM120.447 53.5339C120.447 52.8091 120.209 52.256 119.733 51.8745C119.256 51.4803 118.651 51.2832 117.916 51.2832C117.181 51.2832 116.569 51.4803 116.079 51.8745C115.589 52.256 115.344 52.8091 115.344 53.5339V56.8527C115.344 57.5775 115.589 58.137 116.079 58.5312C116.569 58.9126 117.181 59.1034 117.916 59.1034C118.651 59.1034 119.256 58.9126 119.733 58.5312C120.209 58.137 120.447 57.5775 120.447 56.8527V53.5339Z" fill="black"/>
<path d="M125.487 53.5339C125.487 52.5294 125.813 51.7537 126.466 51.2069C127.119 50.6602 127.97 50.3868 129.018 50.3868C130.065 50.3868 130.909 50.6665 131.549 51.226C132.188 51.7728 132.508 52.5421 132.508 53.5339C132.508 53.7755 132.372 53.8963 132.1 53.8963H131.936C131.678 53.8963 131.549 53.7755 131.549 53.5339C131.549 52.8091 131.311 52.256 130.834 51.8745C130.358 51.493 129.752 51.3023 129.018 51.3023C128.283 51.3023 127.671 51.4994 127.181 51.8936C126.704 52.2751 126.466 52.8282 126.466 53.553V56.8336C126.466 57.5584 126.704 58.1179 127.181 58.5121C127.671 58.8936 128.283 59.0843 129.018 59.0843C129.752 59.0843 130.351 58.8999 130.814 58.5312C131.29 58.1497 131.535 57.6093 131.549 56.9099C131.549 56.8082 131.583 56.7192 131.651 56.6429C131.732 56.5666 131.828 56.5285 131.936 56.5285H132.1C132.222 56.5285 132.317 56.5666 132.385 56.6429C132.467 56.7192 132.508 56.8082 132.508 56.9099C132.481 57.8763 132.147 58.6329 131.508 59.1797C130.868 59.7264 130.031 59.9998 128.997 59.9998C127.977 59.9998 127.133 59.7264 126.466 59.1797C125.813 58.6202 125.487 57.8445 125.487 56.8527V53.5339Z" fill="black"/>
<path d="M136.771 46.038H136.955C137.214 46.038 137.343 46.1588 137.343 46.4004V58.6265C137.642 58.1942 138.534 56.8018 140.017 54.4494C141.5 52.097 142.323 50.7937 142.487 50.5394C142.541 50.4631 142.643 50.4249 142.793 50.4249H143.242C143.419 50.4249 143.507 50.4885 143.507 50.6157C143.507 50.7428 143.004 51.5821 141.997 53.1334L140.833 54.9263L143.507 59.5039C143.575 59.6056 143.609 59.6947 143.609 59.7709C143.609 59.8981 143.521 59.9617 143.344 59.9617H142.895C142.786 59.9617 142.677 59.8981 142.568 59.7709L140.262 55.8418C138.847 58.0543 138.057 59.2623 137.894 59.4658C137.744 59.6692 137.608 59.8027 137.486 59.8663C137.377 59.9299 137.248 59.9617 137.098 59.9617C136.622 59.9617 136.384 59.7137 136.384 59.2178V46.4004C136.384 46.1588 136.513 46.038 136.771 46.038Z" fill="black"/>
<path d="M147.032 53.5339C147.032 52.5294 147.359 51.7537 148.012 51.2069C148.665 50.6602 149.515 50.3868 150.563 50.3868C151.611 50.3868 152.455 50.6665 153.094 51.226C153.734 51.7728 154.054 52.5421 154.054 53.5339C154.054 53.7755 153.917 53.8963 153.645 53.8963H153.482C153.223 53.8963 153.094 53.7755 153.094 53.5339C153.094 52.8091 152.856 52.256 152.38 51.8745C151.904 51.493 151.298 51.3023 150.563 51.3023C149.828 51.3023 149.216 51.4994 148.726 51.8936C148.25 52.2751 148.012 52.8282 148.012 53.553V56.8336C148.012 57.5584 148.25 58.1179 148.726 58.5121C149.216 58.8936 149.828 59.0843 150.563 59.0843C151.298 59.0843 151.897 58.8999 152.359 58.5312C152.836 58.1497 153.081 57.6093 153.094 56.9099C153.094 56.8082 153.128 56.7192 153.196 56.6429C153.278 56.5666 153.373 56.5285 153.482 56.5285H153.645C153.768 56.5285 153.863 56.5666 153.931 56.6429C154.013 56.7192 154.054 56.8082 154.054 56.9099C154.026 57.8763 153.693 58.6329 153.053 59.1797C152.414 59.7264 151.577 59.9998 150.543 59.9998C149.522 59.9998 148.679 59.7264 148.012 59.1797C147.359 58.6202 147.032 57.8445 147.032 56.8527V53.5339Z" fill="black"/>
<path d="M161.705 50.3868C162.644 50.3868 163.406 50.6665 163.991 51.226C164.59 51.7855 164.889 52.5548 164.889 53.5339V59.5802C164.889 59.8345 164.76 59.9617 164.502 59.9617H164.318C164.046 59.9617 163.91 59.8345 163.91 59.5802V53.553C163.91 52.8282 163.699 52.2687 163.277 51.8745C162.855 51.4803 162.284 51.2832 161.562 51.2832C160.855 51.2832 160.242 51.5248 159.725 52.008C159.603 52.1225 159.487 52.1797 159.378 52.1797C159.133 52.1797 159.004 52.0525 158.991 51.7982C158.991 51.7092 159.018 51.6138 159.072 51.5121C159.249 51.2069 159.589 50.9463 160.093 50.7301C160.596 50.5012 161.134 50.3868 161.705 50.3868ZM158.317 46.019H158.48C158.589 46.019 158.684 46.0571 158.766 46.1334C158.848 46.197 158.889 46.286 158.889 46.4004V59.5802C158.889 59.6947 158.848 59.79 158.766 59.8663C158.684 59.9299 158.589 59.9617 158.48 59.9617H158.317C158.208 59.9617 158.113 59.9299 158.031 59.8663C157.95 59.79 157.909 59.6947 157.909 59.5802V46.4004C157.909 46.286 157.95 46.197 158.031 46.1334C158.113 46.0571 158.208 46.019 158.317 46.019Z" fill="black"/>
<path d="M168.739 53.5339C168.739 52.5294 169.065 51.7537 169.718 51.2069C170.371 50.6602 171.222 50.3868 172.27 50.3868C173.317 50.3868 174.161 50.6665 174.801 51.226C175.44 51.7728 175.76 52.5421 175.76 53.5339V57.7301C175.76 58.226 175.801 58.5693 175.882 58.7601C175.978 58.9381 176.155 59.0589 176.413 59.1224L176.638 59.1797C176.842 59.2178 176.944 59.3005 176.944 59.4276V59.6374C176.944 59.8536 176.808 59.9617 176.536 59.9617C175.869 59.9617 175.413 59.7773 175.168 59.4086C174.923 59.0398 174.801 58.4739 174.801 57.711V53.5339C174.801 52.8091 174.563 52.256 174.086 51.8745C173.61 51.4803 173.005 51.2832 172.27 51.2832C171.535 51.2832 170.923 51.4803 170.433 51.8745C169.943 52.256 169.698 52.8091 169.698 53.5339V56.7955C169.698 57.5457 169.895 58.1116 170.29 58.493C170.698 58.8745 171.276 59.0652 172.025 59.0652C172.787 59.0652 173.413 58.7791 173.903 58.2069C173.998 58.0925 174.127 58.0353 174.29 58.0353C174.467 58.0353 174.59 58.1306 174.658 58.3214C174.699 58.474 174.678 58.6075 174.597 58.7219C174.011 59.5484 173.168 59.9617 172.066 59.9617C170.977 59.9617 170.147 59.6883 169.575 59.1415C169.018 58.5947 168.739 57.8191 168.739 56.8146V53.5339Z" fill="black"/>
<path d="M180.208 50.4059H180.555C180.718 50.4059 180.827 50.4376 180.881 50.5012C180.936 50.5648 180.963 50.6602 180.963 50.7873V59.5802C180.963 59.6947 180.922 59.79 180.84 59.8663C180.759 59.9299 180.664 59.9617 180.555 59.9617H180.208C180.099 59.9617 180.004 59.9299 179.922 59.8663C179.84 59.79 179.799 59.6947 179.799 59.5802V50.7873C179.799 50.622 179.833 50.5203 179.902 50.4822C179.983 50.4313 180.085 50.4059 180.208 50.4059ZM179.412 46.1715C179.548 46.0571 179.861 45.9999 180.351 45.9999C180.84 45.9999 181.16 46.0635 181.31 46.1906C181.46 46.3051 181.534 46.553 181.534 46.9345V47.1824C181.534 47.6148 181.46 47.8882 181.31 48.0026C181.16 48.117 180.84 48.1743 180.351 48.1743C179.861 48.1743 179.548 48.117 179.412 48.0026C179.276 47.8882 179.208 47.6148 179.208 47.1824V46.9345C179.208 46.5276 179.276 46.2733 179.412 46.1715ZM180.82 46.9917C180.82 46.8645 180.786 46.7819 180.718 46.7437C180.664 46.6929 180.541 46.6675 180.351 46.6675C180.174 46.6675 180.058 46.6865 180.004 46.7247C179.949 46.7628 179.922 46.8518 179.922 46.9917V47.1824C179.922 47.3223 179.949 47.4113 180.004 47.4495C180.058 47.4876 180.18 47.5067 180.371 47.5067C180.561 47.5067 180.684 47.4876 180.738 47.4495C180.793 47.4113 180.82 47.3223 180.82 47.1824V46.9917Z" fill="black"/>
<path d="M188.395 50.3868C189.415 50.3868 190.198 50.6411 190.742 51.1497C191.286 51.6456 191.558 52.3768 191.558 53.3432V59.5802C191.558 59.8345 191.429 59.9617 191.17 59.9617H191.007C190.735 59.9617 190.599 59.8345 190.599 59.5802V53.553C190.599 52.0398 189.857 51.2832 188.374 51.2832C187.599 51.2832 186.939 51.5693 186.394 52.1415C186.245 52.256 186.115 52.3132 186.006 52.3132C185.762 52.3132 185.632 52.1861 185.619 51.9317C185.619 51.83 185.646 51.7283 185.7 51.6266C185.986 51.2578 186.367 50.959 186.843 50.7301C187.32 50.5012 187.837 50.3868 188.395 50.3868ZM184.945 50.444H185.108C185.217 50.444 185.313 50.4822 185.394 50.5584C185.476 50.622 185.517 50.711 185.517 50.8255V59.5802C185.517 59.6947 185.476 59.79 185.394 59.8663C185.313 59.9299 185.217 59.9617 185.108 59.9617H184.945C184.836 59.9617 184.741 59.9299 184.659 59.8663C184.578 59.79 184.537 59.6947 184.537 59.5802V50.8255C184.537 50.711 184.578 50.622 184.659 50.5584C184.741 50.4822 184.836 50.444 184.945 50.444Z" fill="black"/>
<path d="M206.673 49.6429C206.673 48.8164 207.034 48.098 207.755 47.4876C208.476 46.8773 209.456 46.5721 210.694 46.5721C211.946 46.5721 212.994 46.8836 213.837 47.5067C214.694 48.117 215.15 49.0326 215.205 50.2533C215.205 50.355 215.164 50.4504 215.082 50.5394C215.001 50.6157 214.905 50.6538 214.797 50.6538H214.592C214.497 50.6538 214.409 50.622 214.327 50.5584C214.245 50.4822 214.198 50.3931 214.184 50.2914C214.143 49.325 213.796 48.6257 213.143 48.1933C212.49 47.7483 211.708 47.5258 210.796 47.5258C209.816 47.5258 209.054 47.7356 208.51 48.1552C207.966 48.5748 207.694 49.0961 207.694 49.7192C207.694 50.3296 207.884 50.8191 208.265 51.1879C208.796 51.6838 209.782 52.1924 211.225 52.7138C212.939 53.3495 214.082 53.9853 214.654 54.6211C215.089 55.1043 215.307 55.7973 215.307 56.7001C215.307 57.6029 214.912 58.3786 214.123 59.0271C213.347 59.6629 212.238 59.9808 210.796 59.9808C209.721 59.9808 208.707 59.7074 207.755 59.1606C207.251 58.8681 206.836 58.4612 206.51 57.9399C206.197 57.4058 206.027 56.7955 205.999 56.1088C205.999 55.8418 206.135 55.7083 206.408 55.7083H206.591C206.836 55.7083 206.972 55.8291 207 56.0707C207.027 56.6302 207.176 57.1197 207.449 57.5393C207.721 57.9462 208.061 58.2514 208.469 58.4549C209.258 58.8491 210.122 59.0462 211.061 59.0462C212.014 59.0462 212.789 58.8173 213.388 58.3595C214.001 57.889 214.307 57.3041 214.307 56.6047C214.307 55.8927 214.062 55.3459 213.572 54.9644C213.177 54.6592 212.749 54.3986 212.286 54.1824C211.687 53.9154 210.748 53.5403 209.469 53.0571C208.49 52.6502 207.775 52.1861 207.326 51.6647C206.891 51.1307 206.673 50.4567 206.673 49.6429Z" fill="black"/>
<path d="M218.545 53.5339C218.545 52.5294 218.871 51.7537 219.525 51.2069C220.178 50.6602 221.028 50.3868 222.076 50.3868C223.124 50.3868 223.967 50.6665 224.607 51.226C225.246 51.7728 225.566 52.5421 225.566 53.5339V56.8527C225.566 57.8445 225.246 58.6202 224.607 59.1797C223.967 59.7264 223.124 59.9998 222.076 59.9998C221.042 59.9998 220.191 59.7264 219.525 59.1797C218.871 58.6202 218.545 57.8445 218.545 56.8527V53.5339ZM224.607 53.5339C224.607 52.8091 224.369 52.256 223.893 51.8745C223.416 51.4803 222.811 51.2832 222.076 51.2832C221.341 51.2832 220.729 51.4803 220.239 51.8745C219.749 52.256 219.504 52.8091 219.504 53.5339V56.8527C219.504 57.5775 219.749 58.137 220.239 58.5312C220.729 58.9126 221.341 59.1034 222.076 59.1034C222.811 59.1034 223.416 58.9126 223.893 58.5312C224.369 58.137 224.607 57.5775 224.607 56.8527V53.5339Z" fill="black"/>
<path d="M230.055 46.038H230.218C230.477 46.038 230.606 46.1588 230.606 46.4004V57.0244C230.606 58.3849 231.225 59.0652 232.463 59.0652H232.79C232.899 59.0652 232.987 59.1034 233.055 59.1797C233.137 59.256 233.178 59.3386 233.178 59.4276V59.5802C233.178 59.8345 232.933 59.9617 232.443 59.9617C231.518 59.9617 230.817 59.7137 230.34 59.2178C229.864 58.7219 229.633 57.9971 229.646 57.0434V46.4004C229.646 46.1588 229.783 46.038 230.055 46.038Z" fill="black"/>
<path d="M236.871 50.3868H237.034C237.306 50.3868 237.442 50.5139 237.442 50.7683V56.7955C237.442 57.5457 237.64 58.1116 238.034 58.493C238.443 58.8745 239.014 59.0652 239.749 59.0652C240.484 59.0652 241.116 58.7918 241.647 58.2451C241.77 58.1052 241.899 58.0353 242.035 58.0353C242.293 58.0353 242.423 58.1751 242.423 58.4549C242.423 58.5693 242.389 58.671 242.321 58.7601C242.048 59.1161 241.667 59.4086 241.178 59.6374C240.688 59.8536 240.171 59.9617 239.626 59.9617C238.687 59.9617 237.925 59.6883 237.34 59.1415C236.769 58.582 236.483 57.8064 236.483 56.8146V50.7683C236.483 50.5139 236.612 50.3868 236.871 50.3868ZM242.913 50.4249H243.117C243.375 50.4249 243.504 50.5521 243.504 50.8064V57.7301C243.504 58.226 243.545 58.5693 243.627 58.7601C243.722 58.9381 243.899 59.0589 244.158 59.1224L244.382 59.1797C244.586 59.2178 244.688 59.3005 244.688 59.4276V59.6374C244.688 59.8536 244.552 59.9617 244.28 59.9617C243.613 59.9617 243.151 59.7773 242.892 59.4086C242.647 59.0398 242.525 58.4739 242.525 57.711V50.8064C242.525 50.5521 242.654 50.4249 242.913 50.4249Z" fill="black"/>
<path d="M248.322 46.038H248.486C248.744 46.038 248.874 46.1588 248.874 46.4004L248.812 57.0244C248.826 57.6729 249.016 58.1751 249.384 58.5312C249.765 58.8872 250.261 59.0652 250.874 59.0652H251.384C251.493 59.0652 251.581 59.1034 251.649 59.1797C251.731 59.256 251.772 59.3386 251.772 59.4276V59.5802C251.772 59.8345 251.466 59.9617 250.853 59.9617C249.955 59.9617 249.234 59.7074 248.69 59.1987C248.146 58.6774 247.867 57.959 247.853 57.0434L247.914 46.4004C247.941 46.1588 248.077 46.038 248.322 46.038ZM246.751 50.4249H247.241C247.363 50.4249 247.458 50.4631 247.526 50.5394C247.608 50.6157 247.649 50.7047 247.649 50.8064V50.9208C247.649 51.0226 247.608 51.1116 247.526 51.1879C247.458 51.2642 247.363 51.3023 247.241 51.3023H246.751C246.628 51.3023 246.526 51.2642 246.445 51.1879C246.377 51.1116 246.343 51.0226 246.343 50.9208V50.8064C246.343 50.7047 246.377 50.6157 246.445 50.5394C246.526 50.4631 246.628 50.4249 246.751 50.4249ZM249.486 50.4249H250.996C251.105 50.4249 251.194 50.4631 251.262 50.5394C251.343 50.6157 251.384 50.7047 251.384 50.8064V50.9208C251.384 51.0226 251.343 51.1116 251.262 51.1879C251.194 51.2642 251.105 51.3023 250.996 51.3023H249.486C249.377 51.3023 249.282 51.2642 249.2 51.1879C249.118 51.1116 249.078 51.0226 249.078 50.9208V50.8064C249.078 50.7047 249.118 50.6157 249.2 50.5394C249.282 50.4631 249.377 50.4249 249.486 50.4249Z" fill="black"/>
<path d="M255.547 50.4059H255.894C256.057 50.4059 256.166 50.4376 256.22 50.5012C256.275 50.5648 256.302 50.6602 256.302 50.7873V59.5802C256.302 59.6947 256.261 59.79 256.179 59.8663C256.098 59.9299 256.002 59.9617 255.894 59.9617H255.547C255.438 59.9617 255.343 59.9299 255.261 59.8663C255.179 59.79 255.138 59.6947 255.138 59.5802V50.7873C255.138 50.622 255.172 50.5203 255.24 50.4822C255.322 50.4313 255.424 50.4059 255.547 50.4059ZM254.751 46.1715C254.887 46.0571 255.2 45.9999 255.69 45.9999C256.179 45.9999 256.499 46.0635 256.649 46.1906C256.799 46.3051 256.873 46.553 256.873 46.9345V47.1824C256.873 47.6148 256.799 47.8882 256.649 48.0026C256.499 48.117 256.179 48.1743 255.69 48.1743C255.2 48.1743 254.887 48.117 254.751 48.0026C254.615 47.8882 254.547 47.6148 254.547 47.1824V46.9345C254.547 46.5276 254.615 46.2733 254.751 46.1715ZM256.159 46.9917C256.159 46.8645 256.125 46.7819 256.057 46.7437C256.002 46.6929 255.88 46.6675 255.69 46.6675C255.513 46.6675 255.397 46.6865 255.343 46.7247C255.288 46.7628 255.261 46.8518 255.261 46.9917V47.1824C255.261 47.3223 255.288 47.4113 255.343 47.4495C255.397 47.4876 255.519 47.5067 255.71 47.5067C255.9 47.5067 256.023 47.4876 256.077 47.4495C256.132 47.4113 256.159 47.3223 256.159 47.1824V46.9917Z" fill="black"/>
<path d="M260.1 53.5339C260.1 52.5294 260.427 51.7537 261.08 51.2069C261.733 50.6602 262.584 50.3868 263.631 50.3868C264.679 50.3868 265.523 50.6665 266.162 51.226C266.802 51.7728 267.122 52.5421 267.122 53.5339V56.8527C267.122 57.8445 266.802 58.6202 266.162 59.1797C265.523 59.7264 264.679 59.9998 263.631 59.9998C262.597 59.9998 261.747 59.7264 261.08 59.1797C260.427 58.6202 260.1 57.8445 260.1 56.8527V53.5339ZM266.162 53.5339C266.162 52.8091 265.924 52.256 265.448 51.8745C264.972 51.4803 264.366 51.2832 263.631 51.2832C262.897 51.2832 262.284 51.4803 261.794 51.8745C261.305 52.256 261.06 52.8091 261.06 53.5339V56.8527C261.06 57.5775 261.305 58.137 261.794 58.5312C262.284 58.9126 262.897 59.1034 263.631 59.1034C264.366 59.1034 264.972 58.9126 265.448 58.5312C265.924 58.137 266.162 57.5775 266.162 56.8527V53.5339Z" fill="black"/>
<path d="M274.835 50.3868C275.856 50.3868 276.638 50.6411 277.182 51.1497C277.727 51.6456 277.999 52.3768 277.999 53.3432V59.5802C277.999 59.8345 277.87 59.9617 277.611 59.9617H277.448C277.176 59.9617 277.04 59.8345 277.04 59.5802V53.553C277.04 52.0398 276.298 51.2832 274.815 51.2832C274.039 51.2832 273.379 51.5693 272.835 52.1415C272.685 52.256 272.556 52.3132 272.447 52.3132C272.202 52.3132 272.073 52.1861 272.059 51.9317C272.059 51.83 272.087 51.7283 272.141 51.6266C272.427 51.2578 272.808 50.959 273.284 50.7301C273.76 50.5012 274.277 50.3868 274.835 50.3868ZM271.386 50.444H271.549C271.658 50.444 271.753 50.4822 271.835 50.5584C271.916 50.622 271.957 50.711 271.957 50.8255V59.5802C271.957 59.6947 271.916 59.79 271.835 59.8663C271.753 59.9299 271.658 59.9617 271.549 59.9617H271.386C271.277 59.9617 271.182 59.9299 271.1 59.8663C271.018 59.79 270.978 59.6947 270.978 59.5802V50.8255C270.978 50.711 271.018 50.622 271.1 50.5584C271.182 50.4822 271.277 50.444 271.386 50.444Z" fill="black"/>
<defs>
<linearGradient id="paint0_linear_57_5352" x1="273.631" y1="-1.90526" x2="97.7516" y2="20.9032" gradientUnits="userSpaceOnUse">
<stop stop-color="#0DC3FF"/>
<stop offset="0.2498" stop-color="#09A1F1"/>
<stop offset="0.5769" stop-color="#047AE1"/>
<stop offset="0.8385" stop-color="#0162D8"/>
<stop offset="1" stop-color="#0059D4"/>
</linearGradient>
<linearGradient id="paint1_linear_57_5352" x1="273.881" y1="0.0238715" x2="98.0016" y2="22.8323" gradientUnits="userSpaceOnUse">
<stop stop-color="#0DC3FF"/>
<stop offset="0.2498" stop-color="#09A1F1"/>
<stop offset="0.5769" stop-color="#047AE1"/>
<stop offset="0.8385" stop-color="#0162D8"/>
<stop offset="1" stop-color="#0059D4"/>
</linearGradient>
<linearGradient id="paint2_linear_57_5352" x1="274.094" y1="1.66179" x2="98.2145" y2="24.4703" gradientUnits="userSpaceOnUse">
<stop stop-color="#0DC3FF"/>
<stop offset="0.2498" stop-color="#09A1F1"/>
<stop offset="0.5769" stop-color="#047AE1"/>
<stop offset="0.8385" stop-color="#0162D8"/>
<stop offset="1" stop-color="#0059D4"/>
</linearGradient>
<linearGradient id="paint3_linear_57_5352" x1="274.393" y1="3.96866" x2="98.5135" y2="26.7771" gradientUnits="userSpaceOnUse">
<stop stop-color="#0DC3FF"/>
<stop offset="0.2498" stop-color="#09A1F1"/>
<stop offset="0.5769" stop-color="#047AE1"/>
<stop offset="0.8385" stop-color="#0162D8"/>
<stop offset="1" stop-color="#0059D4"/>
</linearGradient>
<linearGradient id="paint4_linear_57_5352" x1="274.776" y1="6.92562" x2="98.8971" y2="29.7341" gradientUnits="userSpaceOnUse">
<stop stop-color="#0DC3FF"/>
<stop offset="0.2498" stop-color="#09A1F1"/>
<stop offset="0.5769" stop-color="#047AE1"/>
<stop offset="0.8385" stop-color="#0162D8"/>
<stop offset="1" stop-color="#0059D4"/>
</linearGradient>
<linearGradient id="paint5_linear_57_5352" x1="275.185" y1="10.0786" x2="99.3059" y2="32.8871" gradientUnits="userSpaceOnUse">
<stop stop-color="#0DC3FF"/>
<stop offset="0.2498" stop-color="#09A1F1"/>
<stop offset="0.5769" stop-color="#047AE1"/>
<stop offset="0.8385" stop-color="#0162D8"/>
<stop offset="1" stop-color="#0059D4"/>
</linearGradient>
<linearGradient id="paint6_linear_57_5352" x1="275.417" y1="11.8701" x2="99.5378" y2="34.6786" gradientUnits="userSpaceOnUse">
<stop stop-color="#0DC3FF"/>
<stop offset="0.2498" stop-color="#09A1F1"/>
<stop offset="0.5769" stop-color="#047AE1"/>
<stop offset="0.8385" stop-color="#0162D8"/>
<stop offset="1" stop-color="#0059D4"/>
</linearGradient>
<linearGradient id="paint7_linear_57_5352" x1="275.632" y1="13.5249" x2="99.7524" y2="36.3333" gradientUnits="userSpaceOnUse">
<stop stop-color="#0DC3FF"/>
<stop offset="0.2498" stop-color="#09A1F1"/>
<stop offset="0.5769" stop-color="#047AE1"/>
<stop offset="0.8385" stop-color="#0162D8"/>
<stop offset="1" stop-color="#0059D4"/>
</linearGradient>
<linearGradient id="paint8_linear_57_5352" x1="275.923" y1="15.769" x2="100.044" y2="38.5775" gradientUnits="userSpaceOnUse">
<stop stop-color="#0DC3FF"/>
<stop offset="0.2498" stop-color="#09A1F1"/>
<stop offset="0.5769" stop-color="#047AE1"/>
<stop offset="0.8385" stop-color="#0162D8"/>
<stop offset="1" stop-color="#0059D4"/>
</linearGradient>
<linearGradient id="paint9_linear_57_5352" x1="276.179" y1="17.7424" x2="100.3" y2="40.5509" gradientUnits="userSpaceOnUse">
<stop stop-color="#0DC3FF"/>
<stop offset="0.2498" stop-color="#09A1F1"/>
<stop offset="0.5769" stop-color="#047AE1"/>
<stop offset="0.8385" stop-color="#0162D8"/>
<stop offset="1" stop-color="#0059D4"/>
</linearGradient>
<linearGradient id="paint10_linear_57_5352" x1="276.429" y1="19.6749" x2="100.55" y2="42.4834" gradientUnits="userSpaceOnUse">
<stop stop-color="#0DC3FF"/>
<stop offset="0.2498" stop-color="#09A1F1"/>
<stop offset="0.5769" stop-color="#047AE1"/>
<stop offset="0.8385" stop-color="#0162D8"/>
<stop offset="1" stop-color="#0059D4"/>
</linearGradient>
<linearGradient id="paint11_linear_57_5352" x1="13.4222" y1="64.2882" x2="69.3687" y2="23.0216" gradientUnits="userSpaceOnUse">
<stop stop-color="#0059D4"/>
<stop offset="0.2588" stop-color="#0370DD"/>
<stop offset="0.7995" stop-color="#0AABF5"/>
<stop offset="1" stop-color="#0DC3FF"/>
</linearGradient>
<linearGradient id="paint12_linear_57_5352" x1="13.4222" y1="64.2885" x2="69.3687" y2="23.0218" gradientUnits="userSpaceOnUse">
<stop stop-color="#0059D4"/>
<stop offset="0.2588" stop-color="#0370DD"/>
<stop offset="0.7995" stop-color="#0AABF5"/>
<stop offset="1" stop-color="#0DC3FF"/>
</linearGradient>
<linearGradient id="paint13_linear_57_5352" x1="0.656917" y1="46.982" x2="56.6034" y2="5.71535" gradientUnits="userSpaceOnUse">
<stop stop-color="#0059D4"/>
<stop offset="0.2588" stop-color="#0370DD"/>
<stop offset="0.7995" stop-color="#0AABF5"/>
<stop offset="1" stop-color="#0DC3FF"/>
</linearGradient>
</defs>
</svg>
